<svg id="Ebene_1" data-name="Ebene 1" xmlns="http://www.w3.org/2000/svg" viewBox="0 0 700.67218 525.75413"><defs><style>.cls-1{fill:#fff;}.cls-2{fill:none;stroke:#000;stroke-miterlimit:10;}</style></defs><g id="Text-2"><path class="cls-1" d="M75.9016,195.651c0-1.6416-.04834-3.02539-.10205-4.19629h3.374l.17969,1.74805h.05127a4.82467,4.82467,0,0,1,4.15869-2.02881c2.73194,0,5.1875,2.376,5.1875,6.36035,0,4.55273-2.90039,6.68848-5.67871,6.68848a3.85123,3.85123,0,0,1-3.23681-1.42432h-.05079v6.19482H75.9016Zm3.88281,2.9458a3.73609,3.73609,0,0,0,.07813.81006,2.35364,2.35364,0,0,0,2.269,1.84131c1.67627,0,2.67871-1.41309,2.67871-3.53223,0-1.98535-.88867-3.50244-2.6167-3.50244a2.4322,2.4322,0,0,0-2.32128,1.96289,2.77428,2.77428,0,0,0-.0879.69385Z"/><path class="cls-1" d="M95.18627,186.7462v6.61426h6.41113V186.7462h3.8877V203.942h-3.8877v-7.1958H95.18627v7.1958h-3.8877V186.7462Z"/><path class="cls-1" d="M114.62377,195.944v2.584h-6.67383v-2.584Z"/><path class="cls-1" d="M119.24389,203.942l-4.07178-17.1958h4.16455l1.30469,7.08106c.36767,2.04687.72461,4.2793.99951,6.01514h.05371c.27588-1.86866.688-3.92627,1.12158-6.06348l1.47217-7.03272h4.13135l1.37451,7.2583c.36719,2.00635.6582,3.84278.90723,5.74756h.05273c.26807-1.918.63037-3.91259,1.01026-5.97412l1.39062-7.03174h3.95166l-4.43457,17.1958h-4.19873l-1.46436-7.4038c-.34277-1.71973-.61132-3.34229-.82861-5.29151h-.05127c-.29053,1.93653-.56787,3.56739-.97851,5.30371l-1.64356,7.3916Z"/><path class="cls-1" d="M140.91381,198.9464c.11572,1.61133,1.70752,2.37646,3.519,2.37646a10.398,10.398,0,0,0,3.436-.52929l.52392,2.627a12.11732,12.11732,0,0,1-4.52392.78955c-4.23,0-6.65918-2.46338-6.65918-6.355,0-3.17285,1.97851-6.68115,6.29394-6.68115,4.04737,0,5.57569,3.14551,5.57569,6.23535a7.46062,7.46062,0,0,1-.13868,1.53711Zm4.55762-2.65918a2.25551,2.25551,0,0,0-2.17725-2.53125,2.57029,2.57029,0,0,0-2.41211,2.53125Z"/><path class="cls-1" d="M151.39086,195.57091c0-1.833-.0332-3.04053-.102-4.11621h3.33594l.1416,2.311h.09521a3.65724,3.65724,0,0,1,3.37012-2.5918,3.33791,3.33791,0,0,1,.82959.07226v3.65088a4.79046,4.79046,0,0,0-1.04932-.10888,2.49921,2.49921,0,0,0-2.66162,1.97168,4.64736,4.64736,0,0,0-.07177.86377V203.942h-3.8877Z"/><path class="cls-1" d="M165.95141,187.89318v3.56152h2.79443V194.318h-2.79443v4.52442c0,1.50585.374,2.20019,1.53174,2.20019a5.12089,5.12089,0,0,0,1.15429-.11572l.03076,2.94922a8.1833,8.1833,0,0,1-2.51513.334,4.054,4.054,0,0,1-2.92578-1.084,5.1226,5.1226,0,0,1-1.07325-3.70069V194.318h-1.65918V191.4547H162.154v-2.68311Z"/></g><rect class="cls-2" x="0.5" y="0.5" width="699.67218" height="524.75413"/><circle class="cls-1" cx="264.43532" cy="139.10153" r="27.26836"/><circle class="cls-1" cx="330.55557" cy="139.10153" r="27.26836"/><circle class="cls-1" cx="528.91629" cy="139.10153" r="27.26836"/><circle class="cls-1" cx="462.79605" cy="139.10153" r="27.26836"/><circle class="cls-1" cx="396.67581" cy="139.10153" r="27.26836"/><path class="cls-1" d="M183.47066,199.74542h41.90017c3.21726,0,3.22259-5,0-5H183.47066c-3.21726,0-3.22259,5,0,5Z"/><path class="cls-1" d="M208.966,183.67321a68.75183,68.75183,0,0,1,7.57868,6.38073q1.73538,1.68493,3.35389,3.48542c1.04968,1.16785,1.956,2.49772,3.01378,3.64246a1.04514,1.04514,0,0,1,.194.31934c-.06943-.34063.10922-.19908-.28069.11634a19.20355,19.20355,0,0,0-1.84281,2.00978l-3.85315,4.20227-7.7063,8.40454c-2.17136,2.36811,1.35521,5.91341,3.53554,3.53553l8.71146-9.50078q2.17785-2.37518,4.35574-4.75039c1.46616-1.60552,2.573-3.333,1.80693-5.58039-.62147-1.82314-2.14836-3.34538-3.38229-4.77843q-1.86543-2.16647-3.89968-4.17914a77.141,77.141,0,0,0-9.06146-7.62463,2.51916,2.51916,0,0,0-3.42047.89688,2.55585,2.55585,0,0,0,.89687,3.42047Z"/><g id="Text-2-2" data-name="Text-2"><path class="cls-1" d="M520.77318,190.29308h-.05078l-3.15332,1.49756-.6416-2.90967L521.324,186.837h3.20117v16.5835h-3.752Z"/><path class="cls-1" d="M530.67943,199.62365a9.04642,9.04642,0,0,0,3.8584,1.00927c2.00977,0,3.03418-.96533,3.03028-2.20361-.00782-1.64356-1.63184-2.38672-3.34375-2.3916H532.6433V193.2545H534.158c1.29883-.00488,2.9375-.50781,2.9375-1.90478,0-.99023-.80273-1.73486-2.43848-1.73486a7.43517,7.43517,0,0,0-3.46093.99316l-.79688-2.79541a10.3284,10.3284,0,0,1,5.12988-1.25586c3.54688,0,5.50391,1.86133,5.50391,4.13916a3.98723,3.98723,0,0,1-3.03027,3.84619v.05078a4.11878,4.11878,0,0,1,3.59375,4.04c0,2.92725-2.582,5.06836-6.78223,5.06836a9.78653,9.78653,0,0,1-4.9209-1.16162Z"/></g><g id="Text-2-3" data-name="Text-2"><path class="cls-1" d="M454.65307,190.29357h-.05176l-3.15332,1.49756-.6416-2.90967,4.39746-2.04395H458.404V203.421h-3.751Z"/><path class="cls-1" d="M476.12475,195.06066c0,5.10937-2.07422,8.64111-6.30078,8.64111-4.29,0-6.1836-3.84521-6.2002-8.53613,0-4.81787,2.02246-8.6084,6.31152-8.6084C474.36889,186.55724,476.12475,190.51378,476.12475,195.06066Zm-8.61817.08886c-.01074,3.8169.91211,5.62305,2.39649,5.62305,1.51074,0,2.33886-1.895,2.33886-5.66357,0-3.67578-.80273-5.60742-2.34765-5.60742C468.46752,189.50158,467.50072,191.29015,467.50658,195.14952Z"/></g><g id="Text-2-4" data-name="Text-2"><path class="cls-1" d="M263.37182,190.29357h-.05127l-3.15332,1.49756-.6416-2.90967,4.397-2.04395h3.20068V203.421h-3.75146Z"/></g><g id="Text-2-5" data-name="Text-2"><path class="cls-1" d="M331.42016,203.421v-3.9624h-7.35157V196.942l6.26514-10.10449h4.74854v9.71924h1.98047v2.90186h-1.98047v3.9624Zm0-6.86426v-3.6665c0-.9961.05322-2.023.11084-3.09082l-.09326-.0044c-.53028,1.082-.97706,2.041-1.53858,3.07813l-2.21,3.63281-.01514.05078Z"/></g><g id="Text-2-6" data-name="Text-2"><path class="cls-1" d="M402.56176,186.83751v2.44092l-6.835,14.14258h-4.11524l6.834-13.33594v-.05127h-7.603v-3.19629Z"/></g><path class="cls-1" d="M528.91629,320.345a27.26837,27.26837,0,1,0,0-54.53673h-264.481a27.26836,27.26836,0,0,0,0,54.53673Z"/><g id="Text-2-7" data-name="Text-2"><path class="cls-1" d="M153.594,282.02355a32.12372,32.12372,0,0,1,5.248-.36182,8.25545,8.25545,0,0,1,5.26221,1.38916,4.97415,4.97415,0,0,1,1.82324,3.97608,5.41552,5.41552,0,0,1-1.56982,4.07177,8.02107,8.02107,0,0,1-5.585,1.82422,8.99925,8.99925,0,0,1-1.32618-.08838v6.15674H153.594Zm3.85253,7.79931a5.89611,5.89611,0,0,0,1.291.10254c2.06494,0,3.33984-1.04492,3.33984-2.78711,0-1.583-1.083-2.52441-3.04345-2.52441a7.71958,7.71958,0,0,0-1.58741.12842Z"/><path class="cls-1" d="M168.04565,290.62023c0-1.833-.03321-3.04053-.10206-4.11621h3.33594l.1416,2.311h.09522a3.65723,3.65723,0,0,1,3.37012-2.5918,3.33749,3.33749,0,0,1,.82959.07227v3.65088a4.78985,4.78985,0,0,0-1.04932-.10889,2.49922,2.49922,0,0,0-2.66162,1.97168,4.64738,4.64738,0,0,0-.07178.86377v6.31836h-3.88769Z"/><path class="cls-1" d="M189.85326,292.62267a6.24945,6.24945,0,0,1-6.58056,6.64941,6.117,6.117,0,0,1-6.44776-6.43408c0-4.0293,2.65821-6.61475,6.67139-6.61475A6.06019,6.06019,0,0,1,189.85326,292.62267Zm-9.02734.12793c0,2.13086.90039,3.748,2.55469,3.748,1.51367,0,2.47168-1.51563,2.47168-3.76807,0-1.8418-.70948-3.73438-2.46827-3.73438C181.533,288.9962,180.82592,290.89952,180.82592,292.7506Z"/><path class="cls-1" d="M192.154,298.99132c.05371-.82568.102-2.3125.102-3.73V280.87755h3.88282v7.11475h.05078a4.38558,4.38558,0,0,1,3.76855-1.769c3.00049,0,5.18262,2.479,5.15235,6.30469,0,4.49756-2.8501,6.74414-5.71143,6.74414a4.09013,4.09013,0,0,1-3.73291-2.02h-.05371l-.16357,1.73926Zm3.98487-5.2998a3.137,3.137,0,0,0,.06836.68164,2.375,2.375,0,0,0,2.28515,1.84912c1.64844,0,2.67725-1.28516,2.67725-3.53028,0-1.94238-.86817-3.47412-2.67041-3.47412a2.38115,2.38115,0,0,0-2.28125,1.915,3.43575,3.43575,0,0,0-.0791.71826Z"/><path class="cls-1" d="M210.58129,293.99572c.11572,1.61132,1.70752,2.37646,3.519,2.37646a10.39774,10.39774,0,0,0,3.436-.5293l.52392,2.627a12.11752,12.11752,0,0,1-4.52392.78955c-4.23,0-6.65918-2.46338-6.65918-6.355,0-3.17285,1.97851-6.68116,6.29394-6.68116,4.04737,0,5.57569,3.14551,5.57569,6.23536a7.4615,7.4615,0,0,1-.13867,1.53711Zm4.55762-2.65918a2.25551,2.25551,0,0,0-2.17725-2.53125,2.57028,2.57028,0,0,0-2.41211,2.53125Z"/></g></svg>