<svg xmlns="http://www.w3.org/2000/svg" viewBox="0 0 242.29118 294.77216"><defs><style>.cls-1{fill:#01a0c6;}.cls-2,.cls-3,.cls-4{fill:none;stroke-miterlimit:10;}.cls-2{stroke:gray;stroke-width:1.41732px;}.cls-3{stroke:#0c0c0b;stroke-width:2.12598px;}.cls-4{stroke:#2caecf;}.cls-5{fill:#2caecf;}</style></defs><g id="Ebene_1" data-name="Ebene 1"><g id="Master"><path class="cls-1" d="M61.207,53.41686h.19922q.687,0,.68652,1.57227a4.43928,4.43928,0,0,0,.09961,1.17383l-.19922,1.085a7.58733,7.58733,0,0,1,.09961,1.07422v1.373a.088.088,0,0,0,.09961.09961l-.09961.19922v2.84571a.73908.73908,0,0,0,.09961.38769.79914.79914,0,0,0-.09961.39844V64.9989a32.54433,32.54433,0,0,0,.39942,3.73144q-.25488.5874-.68653.58691-.33252,0-.88671-.88574l.10058-.97412a4.86172,4.86172,0,0,1-.10058-.78613.77453.77453,0,0,0,.10058-.29932,2.36611,2.36611,0,0,1-.20019-1.07373V61.85436a7.58721,7.58721,0,0,1,.09961-1.07421.088.088,0,0,0-.09961-.09961l.09961-.48731V59.4071q0-.99609-.09961-2.458a2.79868,2.79868,0,0,0,.09961-.68652q-.14357-.38745-.29883-.3877a4.46729,4.46729,0,0,1-2.34668,1.07422h-.29981q-.78514,0-.78613-.58691v-.29883a5.62177,5.62177,0,0,0,3.333-1.86035Z"/><path class="cls-1" d="M67.8623,53.36169a3.77549,3.77549,0,0,1,2.19239,1.4834,11.47731,11.47731,0,0,1,1.085,3.86474,15.62861,15.62861,0,0,0,.19922,1.66065q0,7.519-2.59082,8.77a2.4537,2.4537,0,0,0-.88575.29882,3.37579,3.37579,0,0,1-3.2998-2.09277,15.96941,15.96941,0,0,1-1.07422-4.54l.09961-.47607q-.09962-1.08473-.09961-1.96a13.99772,13.99772,0,0,1,.9082-4.46241c.11817,0,.20606-.25048.26563-.75292A3.55943,3.55943,0,0,1,67.8623,53.36169Zm-3.18945,7.00879v.09961q0,7.68456,3.07813,7.68457h.18847a3.24757,3.24757,0,0,0,1.52832-1.91553A26.21715,26.21715,0,0,0,70.1543,61.057a10.20255,10.20255,0,0,0-1.65039-6.123,1.07952,1.07952,0,0,1-.5752-.28808H67.751q-1.96,0-2.58008,2.80127Z"/><path class="cls-1" d="M75.61035,99.57263h.19922q.687,0,.68652,1.57226a4.43928,4.43928,0,0,0,.09961,1.17383l-.19922,1.085a7.58733,7.58733,0,0,1,.09961,1.07422v1.373a.088.088,0,0,0,.09961.09961l-.09961.19921v2.84571a.73906.73906,0,0,0,.09961.38769.79916.79916,0,0,0-.09961.39844v1.37305a32.54433,32.54433,0,0,0,.39942,3.73144q-.25488.5874-.68653.58692-.33252,0-.88671-.88575l.10058-.97412a4.86159,4.86159,0,0,1-.10058-.78613.77453.77453,0,0,0,.10058-.29932,2.36611,2.36611,0,0,1-.20019-1.07373v-3.44384a7.58733,7.58733,0,0,1,.09961-1.07422.088.088,0,0,0-.09961-.09961l.09961-.48731v-.78613q0-.99609-.09961-2.458a2.79868,2.79868,0,0,0,.09961-.68652q-.14356-.38745-.29883-.3877a4.46729,4.46729,0,0,1-2.34668,1.07422h-.29981q-.78514,0-.78613-.58691v-.29883a5.62177,5.62177,0,0,0,3.333-1.86035Z"/><path class="cls-1" d="M82.26562,99.51745a3.77549,3.77549,0,0,1,2.19239,1.4834,11.47707,11.47707,0,0,1,1.085,3.86474,15.63146,15.63146,0,0,0,.19922,1.66065q0,7.519-2.59082,8.77a2.45357,2.45357,0,0,0-.88575.29883,3.3758,3.3758,0,0,1-3.2998-2.09278,15.96941,15.96941,0,0,1-1.07422-4.54l.09961-.47607q-.09961-1.08471-.09961-1.96a13.99758,13.99758,0,0,1,.9082-4.4624c.11817,0,.20606-.25049.26563-.75293A3.55945,3.55945,0,0,1,82.26562,99.51745Zm-3.18945,7.00879v.09961q0,7.68458,3.07813,7.68457h.18847a3.24757,3.24757,0,0,0,1.52832-1.91553,26.21715,26.21715,0,0,0,.68653-5.18213,10.20249,10.20249,0,0,0-1.65039-6.123,1.07956,1.07956,0,0,1-.5752-.28809H82.1543q-1.96,0-2.58008,2.80127Z"/><path class="cls-1" d="M61.9209,270.81579h.19922q.687,0,.68652,1.57227a4.44134,4.44134,0,0,0,.09961,1.17382l-.19922,1.085a7.57529,7.57529,0,0,1,.09961,1.07422v1.373a.088.088,0,0,0,.09961.09961l-.09961.19922v2.8457a.74145.74145,0,0,0,.09961.3877.799.799,0,0,0-.09961.39843v1.37305a32.55424,32.55424,0,0,0,.39941,3.73145q-.25488.5874-.68652.58691-.33252,0-.88672-.88574l.10059-.97461a4.85568,4.85568,0,0,1-.10059-.78613.77043.77043,0,0,0,.10059-.29883,2.36837,2.36837,0,0,1-.2002-1.07422v-3.44336a7.57653,7.57653,0,0,1,.09961-1.07422.088.088,0,0,0-.09961-.09961l.09961-.4873V276.806q0-.99609-.09961-2.458a2.80147,2.80147,0,0,0,.09961-.68653q-.14355-.38819-.29883-.38769A4.47111,4.47111,0,0,1,58.9873,274.348h-.2998q-.78516,0-.78613-.58692v-.29883a5.62676,5.62676,0,0,0,3.333-1.86035Z"/><path class="cls-1" d="M68.57617,270.76013a3.77764,3.77764,0,0,1,2.19238,1.48339,11.4849,11.4849,0,0,1,1.085,3.86524,15.61239,15.61239,0,0,0,.19921,1.66015q0,7.519-2.59082,8.77051a2.4536,2.4536,0,0,0-.88574.29883,3.37648,3.37648,0,0,1-3.2998-2.09277,15.96941,15.96941,0,0,1-1.07422-4.54l.09961-.47656q-.09961-1.084-.09961-1.96a13.99726,13.99726,0,0,1,.9082-4.46191c.11817,0,.20606-.251.26563-.75293A3.55891,3.55891,0,0,1,68.57617,270.76013Zm-3.18945,7.00878v.09961q0,7.68458,3.07812,7.68457h.18848a3.24483,3.24483,0,0,0,1.52832-1.915,26.22554,26.22554,0,0,0,.68652-5.18262,10.20449,10.20449,0,0,0-1.65039-6.12305,1.07577,1.07577,0,0,1-.57519-.28808h-.17774q-1.96,0-2.58007,2.80175Z"/></g></g><g id="Ebene_2" data-name="Ebene 2"><polygon class="cls-2" points="74.608 0.796 56.588 0.806 47.587 16.417 56.606 32.018 74.626 32.008 83.627 16.397 74.608 0.796"/><polygon class="cls-2" points="124.822 0.767 106.801 0.777 97.8 16.388 106.819 31.989 124.84 31.979 133.841 16.368 124.822 0.767"/><polygon class="cls-2" points="175.035 0.738 157.015 0.748 148.014 16.359 157.033 31.96 175.053 31.95 184.055 16.339 175.035 0.738"/><polygon class="cls-2" points="225.249 0.709 207.229 0.719 198.228 16.33 207.247 31.931 225.267 31.921 234.268 16.31 225.249 0.709"/><polygon class="cls-2" points="85.281 77.959 74.191 77.965 68.652 87.573 74.202 97.174 85.292 97.167 90.832 87.56 85.281 77.959"/><polygon class="cls-2" points="135.495 77.941 124.405 77.947 118.865 87.555 124.416 97.156 135.506 97.15 141.045 87.542 135.495 77.941"/><polygon class="cls-2" points="185.709 77.923 174.618 77.93 169.079 87.537 174.63 97.138 185.72 97.132 191.259 87.524 185.709 77.923"/><polygon class="cls-2" points="235.922 77.905 224.832 77.912 219.293 87.519 224.843 97.12 235.933 97.114 241.473 87.506 235.922 77.905"/><polygon class="cls-2" points="74.608 131.769 56.588 131.78 47.587 147.391 56.606 162.992 74.626 162.981 83.627 147.37 74.608 131.769"/><polygon class="cls-2" points="124.822 131.74 106.801 131.751 97.8 147.362 106.819 162.963 124.84 162.952 133.841 147.341 124.822 131.74"/><polygon class="cls-2" points="175.035 131.711 157.015 131.722 148.014 147.333 157.033 162.934 175.053 162.923 184.055 147.312 175.035 131.711"/><polygon class="cls-2" points="225.249 131.682 207.229 131.693 198.228 147.304 207.247 162.905 225.267 162.894 234.268 147.283 225.249 131.682"/><polygon class="cls-2" points="74.608 46.539 56.588 46.55 47.587 62.161 56.606 77.762 74.626 77.751 83.627 62.14 74.608 46.539"/><polygon class="cls-2" points="124.822 46.51 106.801 46.521 97.8 62.132 106.819 77.733 124.84 77.722 133.841 62.111 124.822 46.51"/><polygon class="cls-2" points="175.035 46.481 157.015 46.492 148.014 62.103 157.033 77.704 175.053 77.693 184.055 62.082 175.035 46.481"/><polygon class="cls-2" points="225.249 46.452 207.229 46.463 198.228 62.074 207.247 77.675 225.267 77.664 234.268 62.053 225.249 46.452"/><polygon class="cls-2" points="74.608 215.486 56.588 215.497 47.587 231.108 56.606 246.709 74.626 246.698 83.627 231.087 74.608 215.486"/><polygon class="cls-2" points="124.822 215.457 106.801 215.468 97.8 231.079 106.819 246.68 124.84 246.669 133.841 231.058 124.822 215.457"/><polygon class="cls-2" points="175.035 215.428 157.015 215.439 148.014 231.05 157.033 246.651 175.053 246.64 184.055 231.029 175.035 215.428"/><polygon class="cls-2" points="225.249 215.399 207.229 215.41 198.228 231.021 207.247 246.622 225.267 246.611 234.268 231 225.249 215.399"/><polygon class="cls-2" points="85.259 96.999 74.168 97.006 68.629 106.613 74.18 116.215 85.27 116.208 90.809 106.601 85.259 96.999"/><polygon class="cls-2" points="135.472 96.982 124.382 96.988 118.843 106.596 124.393 116.197 135.483 116.19 141.023 106.583 135.472 96.982"/><polygon class="cls-2" points="185.686 96.964 174.596 96.97 169.056 106.578 174.607 116.179 185.697 116.172 191.237 106.565 185.686 96.964"/><polygon class="cls-2" points="235.9 96.946 224.81 96.952 219.27 106.56 224.821 116.161 235.911 116.155 241.45 106.547 235.9 96.946"/><polygon class="cls-2" points="85.241 163.203 74.151 163.21 68.612 172.817 74.162 182.418 85.252 182.412 90.792 172.805 85.241 163.203"/><polygon class="cls-2" points="135.455 163.186 124.365 163.192 118.825 172.8 124.376 182.401 135.466 182.394 141.006 172.787 135.455 163.186"/><polygon class="cls-2" points="185.669 163.168 174.579 163.174 169.039 172.782 174.59 182.383 185.68 182.376 191.219 172.769 185.669 163.168"/><polygon class="cls-2" points="235.882 163.15 224.792 163.156 219.253 172.764 224.803 182.365 235.894 182.359 241.433 172.751 235.882 163.15"/><polygon class="cls-2" points="85.219 182.244 74.129 182.25 68.589 191.858 74.14 201.459 85.23 201.453 90.769 191.845 85.219 182.244"/><polygon class="cls-2" points="135.432 182.226 124.342 182.233 118.803 191.84 124.353 201.441 135.444 201.435 140.983 191.827 135.432 182.226"/><polygon class="cls-2" points="185.646 182.208 174.556 182.215 169.017 191.822 174.567 201.423 185.657 201.417 191.197 191.81 185.646 182.208"/><polygon class="cls-2" points="235.86 182.191 224.77 182.197 219.23 191.804 224.781 201.406 235.871 201.399 241.41 191.792 235.86 182.191"/><polygon class="cls-3" points="74.608 262.486 56.588 262.497 47.587 278.108 56.606 293.709 74.626 293.698 83.627 278.087 74.608 262.486"/><polygon class="cls-3" points="124.822 262.457 106.801 262.468 97.8 278.079 106.819 293.68 124.84 293.669 133.841 278.058 124.822 262.457"/><polygon class="cls-3" points="175.035 262.428 157.015 262.439 148.014 278.05 157.033 293.651 175.053 293.64 184.055 278.029 175.035 262.428"/><polygon class="cls-3" points="225.249 262.399 207.229 262.41 198.228 278.021 207.247 293.622 225.267 293.611 234.268 278 225.249 262.399"/><path d="M.62012,279.91345a3.226,3.226,0,0,0,1.48144.38086A1.2849,1.2849,0,0,0,3.543,278.96716c0-.77246-.4707-1.207-1.25195-1.74512a3.39137,3.39137,0,0,1-1.79981-2.66113A2.5877,2.5877,0,0,1,3.28906,271.889a2.92029,2.92029,0,0,1,1.42774.34668l-.28125,1.29883a2.16694,2.16694,0,0,0-1.18164-.32617,1.16024,1.16024,0,0,0-1.26758,1.1582c0,.74121.38086,1.07715,1.35547,1.70508a3.17682,3.17682,0,0,1,1.69531,2.74023,2.72727,2.72727,0,0,1-2.9375,2.80176,3.65122,3.65122,0,0,1-1.73242-.39941Z"/><path d="M10.84375,279.52282c0,.749.03418,1.41895.05664,2.00586H9.58984L9.5,280.80309H9.47168a1.87518,1.87518,0,0,1-1.542.83887c-1.26563,0-1.76953-.95605-1.76953-2.751v-4.26368H7.67383v4.0791c0,.9834.17773,1.66895.79687,1.66895a.84867.84867,0,0,0,.77539-.6748,1.95765,1.95765,0,0,0,.084-.59961v-4.47364h1.51367Z"/><path d="M12.26465,276.57165c0-.7793-.03418-1.333-.05664-1.94434h1.31933l.07618.82422h.02929a1.86809,1.86809,0,0,1,1.60254-.9375,1.45736,1.45736,0,0,1,1.47754.99317h.0293a2.22553,2.22553,0,0,1,.6914-.74024,1.83831,1.83831,0,0,1,.96094-.25293c1.09961,0,1.72852.84473,1.72852,2.54883v4.46582H18.61719V277.348c0-.835-.10742-1.5752-.78516-1.5752-.38476,0-.69726.2959-.83594.80762a2.55768,2.55768,0,0,0-.0498.5498v4.39844H15.44141v-4.416c0-.61621-.08789-1.33984-.77149-1.33984-.35937,0-.71191.28613-.83984.84473a2.42651,2.42651,0,0,0-.06055.55078v4.36035H12.26465Z"/><path d="M21.51953,276.57165c0-.7793-.03418-1.333-.05664-1.94434H22.7832l.07618.82422h.02832a1.86806,1.86806,0,0,1,1.60253-.9375,1.45857,1.45857,0,0,1,1.47852.99317h.02832a2.22809,2.22809,0,0,1,.69238-.74024,1.83728,1.83728,0,0,1,.96-.25293c1.10059,0,1.72852.84473,1.72852,2.54883v4.46582H27.87305V277.348c0-.835-.10743-1.5752-.78516-1.5752-.38477,0-.69727.2959-.83594.80762a2.48994,2.48994,0,0,0-.05078.5498v4.39844h-1.5039v-4.416c0-.61621-.08789-1.33984-.77149-1.33984-.35937,0-.71289.28613-.83984.84473a2.37205,2.37205,0,0,0-.06055.55078v4.36035H21.51953Z"/><path d="M31.97852,278.48474c.01562,1.541.73144,1.96093,1.5371,1.96093a3.16916,3.16916,0,0,0,1.23829-.24511l.21484,1.08886a4.39884,4.39884,0,0,1-1.72754.32422c-1.77832,0-2.7334-1.291-2.7334-3.42676,0-2.2832,1.09375-3.67285,2.56641-3.67285,1.45215,0,2.18359,1.31153,2.18359,3.16211a6.04483,6.04483,0,0,1-.04.8086Zm1.87695-1.07715c.01172-1.1084-.35156-1.76563-.8877-1.76563-.65722,0-.95312.95606-.98339,1.76563Z"/><path class="cls-4" d="M43.68994,16.62832c-31.69287-2.33214-32.49316,32.81346-10.8501,45.46027"/><polygon class="cls-5" points="41.362 65.512 27.392 65.325 32.281 61.659 31.52 55.596 41.362 65.512"/><path class="cls-1" d="M34.94434,36.162q.41015,0,.60937.50928a3.09363,3.09363,0,0,1-.09961.71973,17.90852,17.90852,0,0,1,.09961,1.83837v.21045q.03224.19923.19922.19922.48633,0,2.668-.31006h.10058q.13185,0,.50879.50928v.40967q0,.50976-3.27734.71973h-.19922a.81974.81974,0,0,1-.09961.40966,2.9875,2.9875,0,0,0,.29883,1.42871l-.09961.50928h.09961q-.27686,1.12939-.50977,1.1294H34.834q-.35448,0-.50976-1.019l.09961-.21a7.34134,7.34134,0,0,1-.19922-1.73877V40.868h-.40918a.348.348,0,0,0-.14453.022l-.166-.022h-.50879a2.26279,2.26279,0,0,0-.41015.0332,2.02016,2.02016,0,0,0-.29883-.0332q-.07764,0-.62012.09961-.498,0-.91894-.81934,0-.40943.50879-.60889c.59863.06641.9414.09961,1.03027.09961a2.96029,2.96029,0,0,0,.80859-.15527l.62012.05566h.30957q.19921,0,.19922-.21045V37.701a.82234.82234,0,0,1,.09961-.40966.86142.86142,0,0,1-.09961-.40967Q34.22461,36.54993,34.94434,36.162Z"/><path class="cls-4" d="M44.84229,74.10253C12.98389,71.06982,12.3418,117.02755,34.333,133.166"/><polygon class="cls-5" points="42.515 137.341 28.621 135.861 33.829 132.663 33.632 126.556 42.515 137.341"/><path class="cls-1" d="M36.09668,99.37243q.41016,0,.60937.65918a5.11657,5.11657,0,0,1-.0996.93066q.0996,1.24659.0996,2.37793v.27246q.03224.25782.19922.25782a22.56127,22.56127,0,0,0,2.668-.40137h.10059q.13183,0,.50879.65918v.52978q0,.65919-3.27735.93116h-.19922a1.31647,1.31647,0,0,1-.0996.52978,4.80654,4.80654,0,0,0,.29882,1.84815l-.09961.65869h.09961q-.27685,1.46118-.50976,1.46142h-.40918q-.3545,0-.50977-1.31787l.09961-.27246a12.162,12.162,0,0,1-.19922-2.24853v-.78809h-.40918a.27667.27667,0,0,0-.14453.02881l-.166-.02881h-.50879a1.74284,1.74284,0,0,0-.41016.043,1.54937,1.54937,0,0,0-.29883-.043,5.42066,5.42066,0,0,0-.62011.12891q-.49806,0-.91895-1.06006a.83669.83669,0,0,1,.50879-.7876q.89795.12891,1.03027.12891a2.374,2.374,0,0,0,.8086-.20069l.62011.07178h.30957q.19923,0,.19922-.27246v-2.10547a1.32056,1.32056,0,0,1,.09961-.53027,1.385,1.385,0,0,1-.09961-.52979Q35.377,99.87365,36.09668,99.37243Z"/><path class="cls-4" d="M45.17479,157.52286c-31.8584-3.03271-32.50049,42.925-10.50927,59.06345"/><polygon class="cls-5" points="42.847 220.761 28.954 219.282 34.162 216.084 33.965 209.976 42.847 220.761"/><path class="cls-1" d="M36.42871,182.79284q.41016,0,.60938.65918a5.11667,5.11667,0,0,1-.09961.93066q.0996,1.24659.09961,2.37793v.27246q.03222.25782.19921.25782a22.56127,22.56127,0,0,0,2.668-.40137h.10059q.13184,0,.50879.65918v.52979q0,.65918-3.27735.93115h-.19921a1.31646,1.31646,0,0,1-.09961.52978,4.80649,4.80649,0,0,0,.29882,1.84815l-.0996.65869h.0996q-.27686,1.46118-.50976,1.46142h-.40918q-.35449,0-.50977-1.31787l.09961-.27246a12.162,12.162,0,0,1-.19922-2.24853v-.78809H35.2998a.27667.27667,0,0,0-.14453.02881l-.166-.02881h-.50879a1.7429,1.7429,0,0,0-.41016.043,1.54937,1.54937,0,0,0-.29883-.043,5.42112,5.42112,0,0,0-.62011.12891q-.498,0-.919-1.06006a.83669.83669,0,0,1,.50879-.7876q.89795.12891,1.03027.12891a2.374,2.374,0,0,0,.8086-.20069l.62012.07178h.30957q.19921,0,.19921-.27246v-2.10547a1.32056,1.32056,0,0,1,.09961-.53027,1.385,1.385,0,0,1-.09961-.52979Q35.709,183.29406,36.42871,182.79284Z"/><path class="cls-1" d="M39.77539,251.90856a1.1873,1.1873,0,0,0,.23242.60157v1.06054q0,.22852-1.05176.60157a.73911.73911,0,0,1-.35449-.15821q-.65331,0-2.91211.30078l-.80761-.14257q-.35449,0-2.33692.30078a2.61772,2.61772,0,0,1-.46484-1.06055q.16552-1.04591,1.05176-1.04492l.80859.14258,1.17383-.30079.46484.15821q.14355,0,1.16211-.15821a5.58187,5.58187,0,0,0,.69824.15821Zm0-3.46679a1.10515,1.10515,0,0,0,.57617.30078v.459q-.07764,1.50294-.69824,1.50391a1.149,1.149,0,0,0-.69727-.30078c-.15527,0-.23242.04785-.23242.14258a.77546.77546,0,0,1-.35449-.14258,21.776,21.776,0,0,0-3.14453.30078.683.683,0,0,0-.34277-.1582l-.58692.30078q-1.86034-.1421-1.86035-1.04493v-.30078q0-.32958.92969-.75976a.68182.68182,0,0,0,.34375.1582q2.33641,0,2.33594-.30078l.81933.14258h1.73828Q39.7749,248.74255,39.77539,248.44177Z"/></g></svg>